<svg xmlns="http://www.w3.org/2000/svg" width="124" height="64" viewBox="0 0 124 64" fill="none"><path fill-rule="evenodd" clip-rule="evenodd" d="M59.2803 64.0001C58.1186 63.7932 56.9803 63.4503 55.9184 62.9655L38.8623 55.2915L47.7218 56.3321L58.9811 63.8169C59.0808 63.876 59.1805 63.941 59.2803 64.0001ZM86.4632 54.6885L68.0811 62.9655C67.0133 63.4444 65.8809 63.7873 64.7192 64.0001C64.8189 63.941 64.9187 63.8819 65.0126 63.8169L77.0815 55.7941L86.4632 54.6885Z" fill="black"></path><path fill-rule="evenodd" clip-rule="evenodd" d="M115.389 49.2373H8.61133L50.7791 54.1976L59.6856 60.1157C61.1583 61.0971 62.8422 61.0971 64.3148 60.1157L73.2213 54.1976L115.389 49.2373Z" fill="#FF6600"></path><path d="M22.5027 31.2L26.6002 40.4921H19.48L16.5916 32.76H8.32936L6.24702 40.56H0L5.50813 19.6695L3.96316 15.3965H24.3164C25.3239 15.3965 26.13 15.6678 26.8017 16.2782C27.4735 16.8887 27.9437 17.6347 28.2124 18.6521C28.481 19.6695 28.5482 20.6869 28.4139 21.9078C28.2795 23.1287 28.0108 24.2817 27.5406 25.4347C27.0704 26.5878 26.3987 27.673 25.5255 28.7582C24.6522 29.8434 23.6446 30.6573 22.5027 31.2ZM18.338 26.5878C19.0098 26.5878 19.6815 26.3165 20.286 25.8417C20.8906 25.3669 21.2936 24.7565 21.428 24.146C21.6295 23.4678 21.5623 22.8574 21.1593 22.3826C20.8234 21.9078 20.286 21.6365 19.6143 21.6365H11.2849L9.94149 26.5878H18.338Z" fill="black"></path><path d="M41.714 15.3965L35.0639 40.56H28.1452L33.6533 19.7374L32.0412 15.3965H41.714Z" fill="black"></path><path d="M58.7086 40.56H38.8256L44.4009 19.5339L42.8559 15.4643H65.3586C66.9707 15.4643 68.1798 16.0069 68.9859 17.16C69.8592 18.313 70.0607 19.6695 69.5905 21.2295L65.9632 34.7947C65.5601 36.4226 64.6197 37.7791 63.1419 38.8643C61.7985 39.9495 60.3207 40.56 58.7086 40.56ZM60.052 32.8278L62.6045 23.1287C62.7389 22.7217 62.6717 22.3826 62.4702 22.1113C62.2687 21.84 62 21.6365 61.597 21.6365H50.2449L46.8862 34.2521H58.2383C58.6414 34.2521 58.9772 34.1165 59.3803 33.8452C59.7833 33.5739 59.9177 33.2347 60.052 32.8278Z" fill="black"></path><path d="M87.4583 40.56H66.3662L71.8743 19.6695L70.2622 15.3965H96.0563L92.1603 21.6365H77.584L76.6436 25.2991H91.1528L87.727 30.6573H75.2329L74.2925 34.32H91.4215L87.4583 40.56Z" fill="black"></path><path d="M97.5341 15.3965H124L104.856 34.32H117.283L115.671 40.4921H90.1452L109.424 21.5687H99.7508L97.5341 15.3965Z" fill="black"></path><path d="M31.0373 3.31203C31.391 3.37566 31.6909 3.56338 31.9372 3.87517C32.1835 4.18697 32.3066 4.54013 32.3066 4.93464C32.3066 5.27189 32.2182 5.57732 32.0414 5.85094C31.8709 6.11819 31.6215 6.33136 31.2931 6.49044C30.9647 6.64316 30.5827 6.71951 30.147 6.71951H27.5137V0.0859028H30.0238C30.4722 0.0859028 30.8574 0.162261 31.1794 0.314977C31.5015 0.467694 31.7446 0.674497 31.9088 0.935387C32.073 1.18991 32.1551 1.47626 32.1551 1.79442C32.1551 2.17621 32.054 2.49436 31.852 2.74889C31.6499 3.00342 31.3783 3.19113 31.0373 3.31203ZM28.5935 2.87297H29.9291C30.2827 2.87297 30.5574 2.79343 30.7532 2.63435C30.9552 2.46891 31.0563 2.23347 31.0563 1.92804C31.0563 1.62897 30.9552 1.39672 30.7532 1.23127C30.5574 1.05947 30.2827 0.973566 29.9291 0.973566H28.5935V2.87297ZM30.0522 5.83185C30.4185 5.83185 30.7058 5.74277 30.9142 5.5646C31.1226 5.38643 31.2268 5.13826 31.2268 4.82011C31.2268 4.49558 31.1163 4.23787 30.8953 4.04698C30.6742 3.85608 30.3806 3.76064 30.0143 3.76064H28.5935V5.83185H30.0522Z" fill="#FF6600"></path><path d="M35.9807 0.0859028V6.71951H34.9009V0.0859028H35.9807Z" fill="#FF6600"></path><path d="M42.4471 6.71951L39.8991 3.75109V6.71951H38.8193V0.0859028H39.8991V3.11159L42.4566 0.0859028H43.8111L40.9505 3.40748L43.8585 6.71951H42.4471Z" fill="#FF6600"></path><path d="M47.3141 0.964021V2.91115H49.5874V3.79882H47.3141V5.83185H49.8716V6.71951H46.2343V0.0763579H49.8716V0.964021H47.3141Z" fill="#FF6600"></path><path d="M54.7916 6.78633C54.3496 6.78633 53.9517 6.70997 53.5981 6.55725C53.2445 6.39817 52.9666 6.17546 52.7645 5.88912C52.5625 5.60278 52.4614 5.26871 52.4614 4.88692H53.617C53.6423 5.17326 53.7528 5.4087 53.9486 5.59323C54.1506 5.77776 54.4317 5.87003 54.7916 5.87003C55.1642 5.87003 55.4547 5.78095 55.663 5.60278C55.8714 5.41824 55.9756 5.18281 55.9756 4.89646C55.9756 4.67375 55.9093 4.4924 55.7767 4.35241C55.6504 4.21242 55.4894 4.10425 55.2936 4.02789C55.1042 3.95153 54.839 3.86881 54.498 3.77973C54.0686 3.66519 53.7181 3.55065 53.4465 3.43611C53.1813 3.31521 52.954 3.13068 52.7645 2.88252C52.5751 2.63435 52.4804 2.30347 52.4804 1.88986C52.4804 1.50807 52.5751 1.17401 52.7645 0.887663C52.954 0.60132 53.2192 0.381791 53.5602 0.229075C53.9012 0.0763582 54.2959 0 54.7442 0C55.382 0 55.903 0.162261 56.3072 0.486783C56.7176 0.804942 56.945 1.244 56.9892 1.80396H55.7957C55.7767 1.56216 55.663 1.35536 55.4547 1.18355C55.2463 1.01174 54.9716 0.925842 54.6306 0.925842C54.3211 0.925842 54.0686 1.00538 53.8728 1.16446C53.677 1.32354 53.5792 1.55261 53.5792 1.85168C53.5792 2.05531 53.6391 2.22393 53.7591 2.35756C53.8854 2.48482 54.0433 2.58663 54.2327 2.66299C54.4222 2.73935 54.6811 2.82207 55.0095 2.91115C55.4452 3.03205 55.7988 3.15295 56.0704 3.27385C56.3482 3.39475 56.5819 3.58247 56.7713 3.83699C56.9671 4.08516 57.0649 4.41923 57.0649 4.8392C57.0649 5.17644 56.9734 5.4946 56.7902 5.79367C56.6134 6.09274 56.3514 6.33454 56.004 6.51907C55.663 6.69724 55.2589 6.78633 54.7916 6.78633Z" fill="#FF6600"></path><path d="M65.8105 6.78633C65.3684 6.78633 64.9706 6.70997 64.617 6.55725C64.2633 6.39817 63.9855 6.17546 63.7834 5.88912C63.5813 5.60278 63.4803 5.26871 63.4803 4.88692H64.6359C64.6612 5.17326 64.7717 5.4087 64.9674 5.59323C65.1695 5.77776 65.4505 5.87003 65.8105 5.87003C66.183 5.87003 66.4735 5.78095 66.6819 5.60278C66.8903 5.41824 66.9945 5.18281 66.9945 4.89646C66.9945 4.67375 66.9282 4.4924 66.7956 4.35241C66.6693 4.21242 66.5083 4.10425 66.3125 4.02789C66.123 3.95153 65.8578 3.86881 65.5168 3.77973C65.0874 3.66519 64.7369 3.55065 64.4654 3.43611C64.2002 3.31521 63.9729 3.13068 63.7834 2.88252C63.594 2.63435 63.4992 2.30347 63.4992 1.88986C63.4992 1.50807 63.594 1.17401 63.7834 0.887663C63.9729 0.60132 64.2381 0.381791 64.5791 0.229075C64.9201 0.0763582 65.3148 0 65.7631 0C66.4009 0 66.9219 0.162261 67.326 0.486783C67.7365 0.804942 67.9638 1.244 68.008 1.80396H66.8145C66.7956 1.56216 66.6819 1.35536 66.4735 1.18355C66.2651 1.01174 65.9904 0.925842 65.6494 0.925842C65.34 0.925842 65.0874 1.00538 64.8917 1.16446C64.6959 1.32354 64.598 1.55261 64.598 1.85168C64.598 2.05531 64.658 2.22393 64.778 2.35756C64.9043 2.48482 65.0622 2.58663 65.2516 2.66299C65.441 2.73935 65.7 2.82207 66.0283 2.91115C66.464 3.03205 66.8177 3.15295 67.0892 3.27385C67.3671 3.39475 67.6007 3.58247 67.7902 3.83699C67.9859 4.08516 68.0838 4.41923 68.0838 4.8392C68.0838 5.17644 67.9922 5.4946 67.8091 5.79367C67.6323 6.09274 67.3702 6.33454 67.0229 6.51907C66.6819 6.69724 66.2778 6.78633 65.8105 6.78633Z" fill="#FF6600"></path><path d="M75.0318 0.0859028V0.973566H73.2795V6.71951H72.1996V0.973566H70.4378V0.0859028H75.0318Z" fill="#FF6600"></path><path d="M80.5489 6.78633C79.9364 6.78633 79.3712 6.64316 78.8534 6.35681C78.3419 6.06411 77.9346 5.66004 77.6315 5.14463C77.3347 4.62285 77.1863 4.03744 77.1863 3.38839C77.1863 2.73935 77.3347 2.15712 77.6315 1.6417C77.9346 1.12628 78.3419 0.725402 78.8534 0.439059C79.3712 0.146353 79.9364 0 80.5489 0C81.1678 0 81.733 0.146353 82.2445 0.439059C82.7623 0.725402 83.1696 1.12628 83.4664 1.6417C83.7632 2.15712 83.9116 2.73935 83.9116 3.38839C83.9116 4.03744 83.7632 4.62285 83.4664 5.14463C83.1696 5.66004 82.7623 6.06411 82.2445 6.35681C81.733 6.64316 81.1678 6.78633 80.5489 6.78633ZM80.5489 5.84139C80.9847 5.84139 81.373 5.74277 81.714 5.54551C82.055 5.34189 82.3202 5.05554 82.5097 4.68648C82.7055 4.31105 82.8033 3.87836 82.8033 3.38839C82.8033 2.89843 82.7055 2.46891 82.5097 2.09985C82.3202 1.73078 82.055 1.44762 81.714 1.25036C81.373 1.05311 80.9847 0.954476 80.5489 0.954476C80.1132 0.954476 79.7249 1.05311 79.3839 1.25036C79.0429 1.44762 78.7745 1.73078 78.5787 2.09985C78.3893 2.46891 78.2946 2.89843 78.2946 3.38839C78.2946 3.87836 78.3893 4.31105 78.5787 4.68648C78.7745 5.05554 79.0429 5.34189 79.3839 5.54551C79.7249 5.74277 80.1132 5.84139 80.5489 5.84139Z" fill="#FF6600"></path><path d="M89.8145 6.71951L88.2989 4.06607H87.4748V6.71951H86.395V0.0859028H88.6683C89.1735 0.0859028 89.5998 0.174987 89.9471 0.353156C90.3007 0.531325 90.5628 0.769944 90.7333 1.06901C90.9101 1.36808 90.9985 1.70215 90.9985 2.07121C90.9985 2.50391 90.8722 2.89843 90.6196 3.25476C90.3733 3.60474 89.9913 3.84336 89.4735 3.97062L91.1027 6.71951H89.8145ZM87.4748 3.1975H88.6683C89.0725 3.1975 89.3756 3.09569 89.5777 2.89206C89.7861 2.68844 89.8903 2.41482 89.8903 2.07121C89.8903 1.7276 89.7892 1.46035 89.5871 1.26945C89.3851 1.07219 89.0788 0.973566 88.6683 0.973566H87.4748V3.1975Z" fill="#FF6600"></path><path d="M94.8806 0.964021V2.91115H97.1539V3.79882H94.8806V5.83185H97.4381V6.71951H93.8007V0.0763579H97.4381V0.964021H94.8806Z" fill="#FF6600"></path></svg>